<?xml version="1.0" encoding="UTF-8" standalone="no"?><!DOCTYPE svg PUBLIC "-//W3C//DTD SVG 1.1//EN" "http://www.w3.org/Graphics/SVG/1.1/DTD/svg11.dtd"><!-- Generated by graphviz version 2.40.1 (20161225.0304)
 --><!-- Title: G Pages: 1 --><svg xmlns="http://www.w3.org/2000/svg" xmlns:xlink="http://www.w3.org/1999/xlink" width="612pt" height="432pt" viewBox="0.00 0.00 611.87 432.00">
<g id="graph0" class="graph" transform="scale(1 1) rotate(0) translate(4 428)">
<title>G</title>
<polygon fill="#ffffff" stroke="transparent" points="-4,4 -4,-428 607.8687,-428 607.8687,4 -4,4"/>
<!-- N_02CA63A1 -->
<g id="node1" class="node">
<title>N_02CA63A1</title>
<polygon fill="none" stroke="#000000" points="401.8313,-424 53.9809,-424 53.9809,-368 401.8313,-368 401.8313,-424"/>
<text text-anchor="start" x="60.9435" y="-405.4" font-family="Times,serif" text-decoration="underline" font-size="14.00" fill="#000000">Solti.Utils.DI.Injector.Graph.Tests.GraphTests.IInterface_4</text>
<text text-anchor="start" x="207.3002" y="-377.4" font-family="Times,serif" font-style="italic" font-size="14.00" fill="#000000">Scoped</text>
</g>
<!-- N_E56A5610 -->
<g id="node2" class="node">
<title>N_E56A5610</title>
<polygon fill="none" stroke="#000000" points="199.7184,-332 .0938,-332 .0938,-276 199.7184,-276 199.7184,-332"/>
<text text-anchor="start" x="7" y="-313.4" font-family="Times,serif" text-decoration="underline" font-size="14.00" fill="#000000">Solti.Utils.DI.Interfaces.IInjector</text>
<text text-anchor="start" x="76.5863" y="-285.4" font-family="Times,serif" font-style="italic" font-size="14.00" fill="#000000">Instance</text>
</g>
<!-- N_02CA63A1&#45;&gt;N_E56A5610 -->
<g id="edge1" class="edge">
<title>N_02CA63A1-&gt;N_E56A5610</title>
<path fill="none" stroke="#000000" d="M188.8064,-367.8971C175.7772,-358.5323 161.1168,-347.9952 147.5154,-338.2192"/>
<polygon fill="#000000" stroke="#000000" points="149.3704,-335.2422 139.2075,-332.2479 145.2849,-340.9263 149.3704,-335.2422"/>
</g>
<!-- N_8AA05FE8 -->
<g id="node3" class="node">
<title>N_8AA05FE8</title>
<polygon fill="none" stroke="#000000" points="401.8313,-240 53.9809,-240 53.9809,-184 401.8313,-184 401.8313,-240"/>
<text text-anchor="start" x="60.9435" y="-221.4" font-family="Times,serif" text-decoration="underline" font-size="14.00" fill="#000000">Solti.Utils.DI.Injector.Graph.Tests.GraphTests.IInterface_2</text>
<text text-anchor="start" x="201.0716" y="-193.4" font-family="Times,serif" font-style="italic" font-size="14.00" fill="#000000">Singleton</text>
</g>
<!-- N_02CA63A1&#45;&gt;N_8AA05FE8 -->
<g id="edge2" class="edge">
<title>N_02CA63A1-&gt;N_8AA05FE8</title>
<path fill="none" stroke="#000000" d="M227.9061,-367.6532C227.9061,-336.2265 227.9061,-285.363 227.9061,-250.3836"/>
<polygon fill="#000000" stroke="#000000" points="231.4062,-250.077 227.9061,-240.077 224.4062,-250.0771 231.4062,-250.077"/>
</g>
<!-- N_511F68CF -->
<g id="node6" class="node">
<title>N_511F68CF</title>
<polygon fill="none" stroke="#000000" points="603.8313,-332 255.9809,-332 255.9809,-276 603.8313,-276 603.8313,-332"/>
<text text-anchor="start" x="262.9435" y="-313.4" font-family="Times,serif" text-decoration="underline" font-size="14.00" fill="#000000">Solti.Utils.DI.Injector.Graph.Tests.GraphTests.IInterface_3</text>
<text text-anchor="start" x="403.472" y="-285.4" font-family="Times,serif" font-style="italic" font-size="14.00" fill="#000000">Transient</text>
</g>
<!-- N_02CA63A1&#45;&gt;N_511F68CF -->
<g id="edge5" class="edge">
<title>N_02CA63A1-&gt;N_511F68CF</title>
<path fill="none" stroke="#000000" d="M289.6104,-367.8971C311.5349,-357.9116 336.3862,-346.5932 359.0175,-336.2859"/>
<polygon fill="#000000" stroke="#000000" points="360.582,-339.4193 368.2319,-332.0892 357.6806,-333.0489 360.582,-339.4193"/>
</g>
<!-- N_599E7869 -->
<g id="node4" class="node">
<title>N_599E7869</title>
<polygon fill="none" stroke="#000000" points="439.8313,-148 91.9809,-148 91.9809,-92 439.8313,-92 439.8313,-148"/>
<text text-anchor="start" x="98.9435" y="-129.4" font-family="Times,serif" text-decoration="underline" font-size="14.00" fill="#000000">Solti.Utils.DI.Injector.Graph.Tests.GraphTests.IInterface_1</text>
<text text-anchor="start" x="239.472" y="-101.4" font-family="Times,serif" font-style="italic" font-size="14.00" fill="#000000">Transient</text>
</g>
<!-- N_8AA05FE8&#45;&gt;N_599E7869 -->
<g id="edge3" class="edge">
<title>N_8AA05FE8-&gt;N_599E7869</title>
<path fill="none" stroke="#000000" d="M239.5138,-183.8971C242.944,-175.5925 246.755,-166.3659 250.3898,-157.5658"/>
<polygon fill="#000000" stroke="#000000" points="253.6558,-158.8267 254.2385,-148.2479 247.1859,-156.1543 253.6558,-158.8267"/>
</g>
<!-- N_C7C35797 -->
<g id="node5" class="node">
<title>N_C7C35797</title>
<polygon fill="none" stroke="#000000" points="583.6458,-56 150.1664,-56 150.1664,0 583.6458,0 583.6458,-56"/>
<text text-anchor="start" x="157.0363" y="-37.4" font-family="Times,serif" text-decoration="underline" font-size="14.00" fill="#000000">System.Collections.Generic.IReadOnlyDictionary{string, object}:$options</text>
<text text-anchor="start" x="343.5863" y="-9.4" font-family="Times,serif" font-style="italic" font-size="14.00" fill="#000000">Instance</text>
</g>
<!-- N_599E7869&#45;&gt;N_C7C35797 -->
<g id="edge4" class="edge">
<title>N_599E7869-&gt;N_C7C35797</title>
<path fill="none" stroke="#000000" d="M296.7582,-91.8971C306.7481,-82.7974 317.9533,-72.5907 328.4262,-63.051"/>
<polygon fill="#000000" stroke="#000000" points="330.859,-65.5694 335.8949,-56.2479 326.1452,-60.3944 330.859,-65.5694"/>
</g>
<!-- N_511F68CF&#45;&gt;N_8AA05FE8 -->
<g id="edge8" class="edge">
<title>N_511F68CF-&gt;N_8AA05FE8</title>
<path fill="none" stroke="#000000" d="M368.2018,-275.8971C346.2773,-265.9116 321.426,-254.5932 298.7947,-244.2859"/>
<polygon fill="#000000" stroke="#000000" points="300.1316,-241.0489 289.5803,-240.0892 297.2302,-247.4193 300.1316,-241.0489"/>
</g>
<!-- N_511F68CF&#45;&gt;N_599E7869 -->
<g id="edge7" class="edge">
<title>N_511F68CF-&gt;N_599E7869</title>
<path fill="none" stroke="#000000" d="M432.6427,-275.8147C433.6766,-249.4291 431.1073,-210.2406 410.9061,-184 401.1757,-171.3606 388.4171,-161.1637 374.5006,-152.9512"/>
<polygon fill="#000000" stroke="#000000" points="376.1482,-149.8629 365.7027,-148.0902 372.7629,-155.9898 376.1482,-149.8629"/>
</g>
<!-- N_511F68CF&#45;&gt;N_C7C35797 -->
<g id="edge6" class="edge">
<title>N_511F68CF-&gt;N_C7C35797</title>
<path fill="none" stroke="#000000" d="M441.2707,-275.9011C456.4769,-233.6454 478.3225,-152.2747 448.9061,-92 443.4063,-80.7308 434.8572,-70.8664 425.3176,-62.4737"/>
<polygon fill="#000000" stroke="#000000" points="427.4464,-59.6931 417.494,-56.0598 423.0084,-65.1065 427.4464,-59.6931"/>
</g>
</g>
</svg>